<mxfile host="app.diagrams.net" agent="Mozilla/5.0 (Windows NT 10.0; Win64; x64) AppleWebKit/537.36 (KHTML, like Gecko) Chrome/130.0.0.0 Safari/537.36" version="24.8.6">
  <diagram name="第 1 页" id="y9QNOfpJIgcnP84pcCyN">
    <mxGraphModel dx="2948" dy="3062" grid="1" gridSize="10" guides="1" tooltips="1" connect="1" arrows="1" fold="1" page="1" pageScale="1" pageWidth="827" pageHeight="1169" math="0" shadow="0">
      <root>
        <mxCell id="0" />
        <mxCell id="1" parent="0" />
        <mxCell id="PWxIAGgqmAsXcWw13BJe-1" value="" style="points=[];aspect=fixed;html=1;align=center;shadow=0;dashed=0;fillColor=#F2CC8F;strokeColor=none;shape=mxgraph.alibaba_cloud.alibaba_cloud_logo;rounded=1;labelBackgroundColor=none;fontColor=#393C56;" vertex="1" parent="1">
          <mxGeometry x="-80" y="-450" width="64.4" height="40" as="geometry" />
        </mxCell>
        <mxCell id="PWxIAGgqmAsXcWw13BJe-2" value="" style="points=[];aspect=fixed;html=1;align=center;shadow=0;dashed=0;fillColor=#F2CC8F;strokeColor=none;shape=mxgraph.alibaba_cloud.clb_classic_load_balancer_01;rounded=1;labelBackgroundColor=none;fontColor=#393C56;" vertex="1" parent="1">
          <mxGeometry x="80" y="-450" width="47.400000000000006" height="40.2" as="geometry" />
        </mxCell>
        <mxCell id="PWxIAGgqmAsXcWw13BJe-3" value="" style="points=[];aspect=fixed;html=1;align=center;shadow=0;dashed=0;fillColor=#F2CC8F;strokeColor=none;shape=mxgraph.alibaba_cloud.cms_cloud_monitor_service;rounded=1;labelBackgroundColor=none;fontColor=#393C56;" vertex="1" parent="1">
          <mxGeometry x="-320" y="-500" width="138.7" height="110" as="geometry" />
        </mxCell>
        <mxCell id="PWxIAGgqmAsXcWw13BJe-31" value="" style="whiteSpace=wrap;html=1;strokeColor=#E07A5F;fontColor=#393C56;fillColor=#F2CC8F;" vertex="1" parent="1">
          <mxGeometry x="-750" y="-2160" width="1280" height="280" as="geometry" />
        </mxCell>
        <mxCell id="PWxIAGgqmAsXcWw13BJe-32" value="" style="shape=image;verticalLabelPosition=bottom;verticalAlign=top;imageAspect=0;aspect=fixed;image=data:image/svg+xml,PHN2ZyB4bWxuczp4bGluaz0iaHR0cDovL3d3dy53My5vcmcvMTk5OS94bGluayIgeG1sbnM9Imh0dHA6Ly93d3cudzMub3JnLzIwMDAvc3ZnIiBoZWlnaHQ9IjIwMCIgd2lkdGg9IjIwMCIgdmVyc2lvbj0iMS4xIiB2aWV3Qm94PSIwIDAgMTAyNCAxMDI0IiBjbGFzcz0iaWNvbiI+PHBhdGggZmlsbD0iI0ZGNkEwMCIgZD0iTTc0MC4zNTIgNzk5Ljc0NGMtNTkuOTA0IDUxLjItMTQwLjggODAuODk2LTIyNi4zMDQgODAuODk2cy0xNjYuNC0zMS43NDQtMjI2LjMwNC04MC44OTZjLTEwLjc1Mi04LjcwNC0xOS40NTYtMTYuODk2LTMxLjc0NC0yOS42OTYgMTAuNzUyLTE0Ljg0OCAxOS40NTYtMzQuMzA0IDE5LjQ1Ni01NS4yOTYgMi4wNDgtNTMuMjQ4LTQwLjQ0OC05Ni4yNTYtOTMuNjk2LTk2LjI1Ni00LjA5NiAwLTguNzA0IDAtMTAuNzUyIDIuMDQ4LTE5LjQ1NiAyLjA0OC0zOC40IDEwLjc1Mi01My4yNDggMjUuNi0xNi44OTYgMTYuODk2LTI5LjY5NiA0Mi40OTYtMjkuNjk2IDY2LjA0OCAwIDUzLjI0OCA0Mi40OTYgOTYuMjU2IDk1Ljc0NCA5Ni4yNTYgMTAuNzUyIDAgMTYuODk2LTIuMDQ4IDI3LjY0OC00LjA5NiAxMC43NTIgMTAuNzUyIDE5LjQ1NiAxOS40NTYgMzQuMzA0IDMxLjc0NCA3NC43NTIgNjEuOTUyIDE2OC40NDggMTAwLjM1MiAyNzIuODk2IDEwMC4zNTIgMTAyLjQgMCAxOTguNjU2LTM4LjQgMjcyLjg5Ni0xMDIuNC0yMy41NTItOC43MDQtNDAuNDQ4LTE4Ljk0NC01MS4yLTM0LjMwNHogbS01MjIuNzUyLTc2LjhoLTIuMDQ4Yy00LjA5NiAxNC44NDgtMTYuODk2IDI5LjY5Ni0zNi4zNTIgMjkuNjk2LTYuMTQ0IDAtMTAuNzUyLTIuMDQ4LTE2Ljg5Ni00LjA5Ni0xMC43NTItNi4xNDQtMTYuODk2LTE2Ljg5Ni0xNi44OTYtMzQuMzA0IDAtMTkuNDU2IDE0Ljg0OC0zNi4zNTIgMzYuMzUyLTM2LjM1MiA0LjA5NiAwIDguNzA0IDAgMTAuNzUyIDIuMDQ4IDEyLjggNC4wOTYgMjcuNjQ4IDE2Ljg5NiAyNy42NDggMzQuMzA0djguNzA0aC0yLjU2eiBtNjkxLjItNzguODQ4YzQuMDk2LTEyLjggOC43MDQtMjkuNjk2IDEwLjc1Mi00Mi40OTYgNC4wOTYtMjcuNjQ4IDguNzA0LTUzLjI0OCA4LjcwNC03OC44NDggMC03Ni44LTE5LjQ1Ni0xNDQuODk2LTU1LjI5Ni0yMDguODk2LTQ5LjY2NC04NS41MDQtMTMwLjU2LTE1MS41NTItMjI0LjI1Ni0xODUuODU2djguNzA0YzAgMTYuODk2LTQuMDk2IDM0LjMwNC0xMC43NTIgNTEuMiA3OC44NDggMjkuNjk2IDE0Mi44NDggODUuNTA0IDE4My4yOTYgMTU1LjY0OCAzMS43NDQgNTMuMjQ4IDQ5LjE1MiAxMTUuMiA0OS4xNTIgMTc5LjIgMCAxOS40NTYtMi4wNDggMzguNC00LjA5NiA1NS4yOTYtMi4wNDggMTIuOC02LjE0NCAyNy42NDgtOC43MDQgNDAuNDQ4LTQuMDk2IDAtOC43MDQtMi4wNDgtMTAuNzUyLTIuMDQ4LTUzLjI0OCAwLTk2LjI1NiA0Mi40OTYtOTYuMjU2IDk2LjI1NiAwIDE5LjQ1NiA4LjcwNCA0MC40NDggMTYuODk2IDU1LjI5NiAxMC43NTIgMTQuODQ4IDI5LjY5NiAyOS42OTYgNDcuMTA0IDM0LjMwNCA4LjcwNCAyLjA0OCAxNi44OTYgNC4wOTYgMjkuNjk2IDQuMDk2IDUzLjI0OCAwIDk2LjI1Ni00Mi40OTYgOTYuMjU2LTk2LjI1Ni0yLjA0OC0yMy4wNC0xMi44LTQ2LjU5Mi0zMS43NDQtNjYuMDQ4eiBtLTI3LjY0OCA3MC42NTZjMCAxNC44NDgtOC43MDQgMjcuNjQ4LTE5LjQ1NiAzNC4zMDQtNC4wOTYgMi4wNDgtMTAuNzUyIDQuMDk2LTE0Ljg0OCA0LjA5Ni0xNi44OTYgMC0zNC4zMDQtMTAuNzUyLTM2LjM1Mi0yOS42OTZ2LTguNzA0YzAtMTQuODQ4IDEwLjc1Mi0zMS43NDQgMjUuNi0zNC4zMDQgNC4wOTYtMi4wNDggOC43MDQtMi4wNDggMTAuNzUyLTIuMDQ4IDE5LjQ1NiAwIDM2LjM1MiAxNC44NDggMzYuMzUyIDM0LjMwNHYyLjA0OGgtMi4wNDh6TTE1OS43NDQgNTgwLjA5NmMtNC4wOTYtMTYuODk2LTQuMDk2LTM4LjQtNC4wOTYtNTcuMzQ0IDAtNjQgMTYuODk2LTEyNS45NTIgNDkuMTUyLTE3OS4yIDQwLjQ0OC03Mi43MDQgMTA0LjQ0OC0xMjUuOTUyIDE4My4yOTYtMTU1LjY0OCAxMC43NTItNC4wOTYgMjcuNjQ4LTguNzA0IDM4LjQtMTAuNzUyIDEyLjggMzQuMzA0IDQ5LjE1MiA1NS4yOTYgODcuNTUyIDU1LjI5NiAzOC40IDAgNzQuNzUyLTI1LjYgODcuNTUyLTU1LjI5NiA0LjA5Ni0xMC43NTIgOC43MDQtMjUuNiA4LjcwNC0zNi4zNTIgMC04LjcwNCAwLTEyLjgtMi4wNDgtMTkuNDU2LTEwLjc1Mi00Mi40OTYtNDkuMTUyLTc2LjgtOTYuMjU2LTc2LjgtNDQuNTQ0IDAtODIuOTQ0IDM0LjMwNC05MS42NDggNzQuNzUybC00Mi40OTYgMTAuNzUyQzI4MS42IDE2NC4zNTIgMjAyLjc1MiAyMzAuNCAxNTMuNiAzMTUuOTA0Yy0zNC4zMDQgNTkuOTA0LTU1LjI5NiAxMzIuMDk2LTU1LjI5NiAyMDguODk2IDAgMjcuNjQ4IDIuMDQ4IDUzLjI0OCA4LjcwNCA3OC44NDggMTIuMjg4LTEyLjggMzMuNzkyLTE4Ljk0NCA1Mi43MzYtMjMuNTUyeiBtMzMyLjgtNDY4Ljk5MmM2LjE0NC00LjA5NiAxMC43NTItNi4xNDQgMTkuNDU2LTYuMTQ0IDguNzA0IDAgMTIuOCAyLjA0OCAxOS40NTYgNi4xNDQgMTAuNzUyIDYuMTQ0IDE0Ljg0OCAxNi44OTYgMTQuODQ4IDMxLjc0NCAwIDEwLjc1Mi00LjA5NiAxOS40NTYtMTAuNzUyIDI5LjY5Ni02LjY1NiA2LjE0NC0xMi44IDEwLjc1Mi0yNS42IDEwLjc1Mi0xMC43NTIgMC0xNi44OTYtNC4wOTYtMjUuNi0xMC43NTItOC43MDQtNi4xNDQtMTAuNzUyLTE0Ljg0OC0xMC43NTItMjkuNjk2IDAtMTYuODk2IDYuNjU2LTI3LjY0OCAxOC45NDQtMzEuNzQ0eiIvPjxwYXRoIGZpbGw9IiNGRjZBMDAiIGQ9Ik0yOTQuNCA0MDkuNkgyMzAuNHYyMDIuNzUyaDY2LjA0OGM3NC43NTIgMi4wNDggMTExLjEwNC0zMS43NDQgMTA4LjU0NC0xMDQuNDQ4QzQwMy40NTYgNDQzLjkwNCAzNjcuMTA0IDQwOS42IDI5NC40IDQwOS42eiBtLTIuMDQ4IDE2Ni40aC0xNC44NDh2LTEyOGgxNC44NDhjNDAuNDQ4IDAgNjEuOTUyIDIxLjUwNCA2NCA2MS45NTIgMCA0NC41NDQtMjEuNTA0IDY2LjA0OC02NCA2Ni4wNDh6IG0yNzIuODk2LTUzLjI0OHYyOS42OTZjLTIuMDQ4LTIuMDQ4LTQuMDk2LTguNzA0LTguNzA0LTE0Ljg0OCAwLTIuMDQ4LTIuMDQ4LTIuMDQ4LTIuMDQ4LTQuMDk2TDQ3Ny42OTYgNDA5LjZoLTQ5LjE1MnYyMDIuNzUySDQ3MS4wNFY0NjYuOTQ0YzQuMDk2IDYuMTQ0IDYuMTQ0IDEyLjggMTAuNzUyIDE5LjQ1Nmw3OC44NDggMTI1Ljk1Mmg0Ny4xMDRWNDA5LjZoLTQyLjQ5NnYxMTMuMTUyeiBtMTUzLjYgNTkuOTA0Yy0yNS42IDAtNDAuNDQ4LTE0Ljg0OC00NS4wNTYtNDIuNDk2bC00NS4wNTYgOC43MDRjMTAuNzUyIDQ3LjEwNCA0MC40NDggNjguMDk2IDkxLjY0OCA2OC4wOTZzNzYuOC0yMS41MDQgNzguODQ4LTU5LjkwNGMwLTIxLjUwNC0xMC43NTItMzguNC0zMS43NDQtNTEuMi0xMC43NTItNi4xNDQtMjcuNjQ4LTEyLjgtNDcuMTA0LTE2Ljg5Ni0yNS42LTYuMTQ0LTM4LjQtMTQuODQ4LTM2LjM1Mi0yNS42IDAtMTIuOCAxMC43NTItMTkuNDU2IDI3LjY0OC0xOS40NTYgMjMuNTUyIDAgMzYuMzUyIDEwLjc1MiAzOC40IDI5LjY5Nmw0NS4wNTYtOC43MDRjLTguNzA0LTQwLjQ0OC0zNi4zNTItNTkuOTA0LTg1LjUwNC01Ny4zNDQtNDYuMDggMi4wNDgtNjkuNjMyIDE4Ljk0NC03My43MjggNTMuMjQ4LTIuMDQ4IDMxLjc0NCAxNi44OTYgNTEuMiA1My4yNDggNTkuOTA0IDEyLjggMi4wNDggMjUuNiA0LjA5NiA0MC40NDggMTAuNzUyIDE0Ljg0OCA2LjE0NCAyMS41MDQgMTQuODQ4IDIxLjUwNCAyNS42LTIuNTYgMTYuODk2LTEyLjggMjUuMDg4LTMyLjI1NiAyNS42eiIvPjwvc3ZnPg==;strokeColor=#E07A5F;fontColor=#393C56;fillColor=#F2CC8F;" vertex="1" parent="1">
          <mxGeometry x="-120" y="-1790" width="200" height="200" as="geometry" />
        </mxCell>
        <mxCell id="PWxIAGgqmAsXcWw13BJe-33" value="" style="shape=image;verticalLabelPosition=bottom;verticalAlign=top;imageAspect=0;aspect=fixed;image=data:image/svg+xml,PHN2ZyB4bWxuczp4bGluaz0iaHR0cDovL3d3dy53My5vcmcvMTk5OS94bGluayIgeG1sbnM9Imh0dHA6Ly93d3cudzMub3JnLzIwMDAvc3ZnIiBoZWlnaHQ9IjIwMCIgd2lkdGg9IjIwMCIgdmVyc2lvbj0iMS4xIiB2aWV3Qm94PSIwIDAgMTAyNCAxMDI0IiBjbGFzcz0iaWNvbiI+PHBhdGggZmlsbD0iI0ZGNkEwMCIgZD0iTTU3MS45MDQgNjgyLjQ5Nmg1Ny4zNDRWMzg4LjA5NmgtNTkuOTA0djE4My4yOTZMNDUyLjA5NiAzOTAuMTQ0di0yLjA0OEgzOTIuNzA0djI5NC40aDU5LjkwNFY0OTcuMTUybDExNy4yNDggMTgzLjI5NnYyLjA0OGgyLjA0OHpNMjAwLjcwNCAzMjBjMzQuMzA0LTU1LjI5NiA4Mi45NDQtMTAwLjM1MiAxNDAuOC0xMzAuMDQ4LTEyLjggMzYuMzUyLTI3LjY0OCA4NS41MDQtMzguNCAxNDIuODQ4SDM5OS4zNmM4LjcwNC01Ny44NTYgMjMuNTUyLTExOS4yOTYgNDUuMDU2LTE3OS4ySDQ0MC4zMmMyMy41NTItNC4wOTYgNDcuMTA0LTYuMTQ0IDcyLjcwNC02LjE0NHM0OS4xNTIgMi4wNDggNzIuNzA0IDguNzA0YzIxLjUwNCA1OS45MDQgMzQuMzA0IDEyMy45MDQgNDUuMDU2IDE3OS4yaDk1Ljc0NGMtMTAuNzUyLTU3LjM0NC0yNS42LTEwNC40NDgtMzguNC0xNDAuOCA1NS4yOTYgMjkuNjk2IDEwMi40IDc0Ljc1MiAxMzYuNzA0IDEyOCAwIDQuMDk2IDIuMDQ4IDYuNjU2IDIuMDQ4IDEwLjc1Mkg5NDcuMmMtNzAuMTQ0LTE3MC40OTYtMjM5LjEwNC0yOTAuMzA0LTQzNS4yLTI5MC4zMDRDMzEzLjM0NCA0Mi40OTYgMTQ0Ljg5NiAxNjIuMzA0IDc0Ljc1MiAzMzIuOGgxMjEuODU2Yy0wLjUxMi00LjA5NiAyLjA0OC0xMC43NTIgNC4wOTYtMTIuOHogbTc4MC44IDE4NS44NTZoLTE3Ny4xNTJWNDQ4aDE3MC40OTZjLTIuMDQ4LTIxLjUwNC02LjE0NC00Mi40OTYtMTAuNzUyLTU3LjM0NGgtMjE3LjZ2MTc3LjE1MmgxNzcuMTUydjU5LjkwNGgtMTc3LjE1MnY1NS4yOTZoMjA0LjhjMTkuNDU2LTQ5LjE1MiAyNS42LTk4LjMwNCAyNy42NDgtMTQyLjg0OHYyNS42bDIuNTYtNTkuOTA0ek0yNzUuNDU2IDYyMy4xMDRWNDQ4UzI3MS4zNiAzODguMDk2IDIxNS41NTIgMzg4LjA5Nkg1OS45MDRjLTE2Ljg5NiA2Ni4wNDgtMzEuNzQ0IDE4MS4yNDggMTAuNzUyIDI5NC40aDE0NC44OTZjMi4wNDggMCA1OS45MDQgMCA1OS45MDQtNTkuMzkyeiBtLTU3Ljg1NiAyLjA0OEgxMDAuMzUydi0xNzkuMmgxMTcuMjQ4djE3OS4yeiBtNDcxLjU1MiAyMDIuNzUyYzEwLjc1Mi0yNy42NDggMTYuODk2LTU3LjM0NCAyMy41NTItODIuOTQ0aC05My42OTZjLTE0Ljg0OCA2OC4wOTYtMzEuNzQ0IDExMy4xNTItMzYuMzUyIDEyNS45NTItMjMuNTUyIDQuMDk2LTQ3LjEwNCA2LjY1Ni03Mi43MDQgNi42NTYtMjMuNTUyIDAtNDUuMDU2LTIuMDQ4LTY2LjA0OC02LjY1Ni0yLjA0OC00LjA5Ni0yMS41MDQtNDkuMTUyLTM2LjM1Mi0xMjUuOTUySDMxMy4zNDRjNi4xNDQgMjkuNjk2IDE0Ljg0OCA1Ny4zNDQgMjUuNiA4Ny41NTItNDIuNDk2LTIxLjUwNC03OC44NDgtNTMuMjQ4LTEwOC41NDQtODcuNTUySDEwMi40YzgwLjg5NiAxNDAuOCAyMzIuNDQ4IDIzNi41NDQgNDA5LjYgMjM2LjU0NCAxNzUuMTA0IDAgMzI4LjcwNC05Ni4yNTYgNDA5LjYtMjM2LjU0NGgtMTMyLjA5NmMtMjcuNjQ4IDMzLjc5Mi01OS45MDQgNjEuNDQtMTAwLjM1MiA4Mi45NDR6Ii8+PC9zdmc+;strokeColor=#E07A5F;fontColor=#393C56;fillColor=#F2CC8F;" vertex="1" parent="1">
          <mxGeometry x="-1040" y="-2180" width="200" height="200" as="geometry" />
        </mxCell>
        <mxCell id="PWxIAGgqmAsXcWw13BJe-35" value="" style="shape=image;verticalLabelPosition=bottom;verticalAlign=top;imageAspect=0;aspect=fixed;image=data:image/svg+xml,PHN2ZyB4bWxuczp4bGluaz0iaHR0cDovL3d3dy53My5vcmcvMTk5OS94bGluayIgeG1sbnM9Imh0dHA6Ly93d3cudzMub3JnLzIwMDAvc3ZnIiBoZWlnaHQ9IjIwMCIgd2lkdGg9IjIwMCIgdmVyc2lvbj0iMS4xIiB2aWV3Qm94PSIwIDAgMTAyNCAxMDI0IiBjbGFzcz0iaWNvbiI+PHBhdGggZmlsbD0iI0ZGNkEwMCIgZD0iTTI0Ny4yOTYgMzU4LjR2MzA1LjE1MmwyNjIuMTQ0IDE1My42IDI2NC43MDQtMTUxLjU1MlYzNjAuNDQ4bC0yNjIuMTQ0LTE1My42TDI0Ny4yOTYgMzU4LjR6IG00NzguMjA4IDI3Ny41MDRsLTIxNS41NTIgMTIzLjkwNC0yMTMuNTA0LTEyMy45MDRWMzg4LjA5Nkw1MTIgMjY0LjcwNGwyMTMuNTA0IDEyMy45MDR2MjQ3LjI5NnoiLz48cGF0aCBmaWxsPSIjRkY2QTAwIiBkPSJNNjEwLjMwNCAyMDguODk2bC0yLjA0OC00NS4wNTYtOTguMzA0LTU3LjM0NC05OC4zMDQgNTcuODU2djQ3LjEwNEw1MTIgMTUzLjZsOTguMzA0IDU1LjI5NnpNNDExLjY0OCA4MTUuMTA0bDIuMDQ4IDQ1LjA1NiA5OC4zMDQgNTcuMzQ0IDk4LjMwNC01Ny4zNDR2LTQ3LjEwNEw1MDkuOTUyIDg3MC40bC05OC4zMDQtNTUuMjk2eiBtLTIxMC45NDQtMjQzLjJsLTQyLjQ5NiAyNS42djExMy4xNTJMMjU4LjA0OCA3NjhsNDAuNDQ4LTIzLjU1Mi05OC4zMDQtNTcuMzQ0IDAuNTEyLTExNS4yeiBtMC0yMzkuMTA0bDk4LjMwNC01Ny44NTYtNDAuNDQ4LTIzLjU1Mi05OC4zMDQgNTcuODU2djExMy4xNTJsNDIuNDk2IDI1LjYtMi4wNDgtMTE1LjJ6IG02MjIuNTkyIDI0My4ybDIuMDQ4IDExNS4yLTk4LjMwNCA1Ny4zNDQgNDAuNDQ4IDIzLjU1MiA5OC4zMDQtNTcuMzQ0di0xMTEuMTA0bC00Mi40OTYtMjcuNjQ4eiBtMC0xMjhsNDAuNDQ4LTI1LjYgMi4wNDgtMTExLjEwNC0xMDAuMzUyLTU5LjkwNC00MC40NDggMjMuNTUyIDk4LjMwNCA1OS45MDR2MTEzLjE1MnogbS00NzMuNiAxNTMuNkw0OTYuNjQgNjg5LjE1MnYtMTY2LjRMMzQ5LjY5NiA0NDMuOTA0djE1Ny42OTZ6IG0xNzUuMTA0IDg3LjU1MmwxNDcuNDU2LTgwLjg5NlY0NDMuOTA0bC0xNDcuNDU2IDc4Ljg0OHYxNjYuNHpNMzU2LjM1MiA0MTUuNzQ0bDE1My42IDgyLjk0NEw2NjUuNiA0MjAuMzUyIDUwNy45MDQgMzM0Ljg0OCAzNTYuMzUyIDQxNS43NDR6Ii8+PC9zdmc+;strokeColor=#E07A5F;fontColor=#393C56;fillColor=#F2CC8F;" vertex="1" parent="1">
          <mxGeometry x="-700" y="-2110" width="200" height="200" as="geometry" />
        </mxCell>
        <mxCell id="PWxIAGgqmAsXcWw13BJe-36" value="" style="shape=image;verticalLabelPosition=bottom;verticalAlign=top;imageAspect=0;aspect=fixed;image=data:image/svg+xml,PHN2ZyB4bWxuczp4bGluaz0iaHR0cDovL3d3dy53My5vcmcvMTk5OS94bGluayIgeG1sbnM9Imh0dHA6Ly93d3cudzMub3JnLzIwMDAvc3ZnIiBoZWlnaHQ9IjIwMCIgd2lkdGg9IjIwMCIgdmVyc2lvbj0iMS4xIiB2aWV3Qm94PSIwIDAgMTAyNCAxMDI0IiBjbGFzcz0iaWNvbiI+PHBhdGggZmlsbD0iI0ZGNkEwMCIgZD0iTTUxMiA4MzJjMTc3LjE1MiAwIDMyMC0xNDIuODQ4IDMyMC0zMjBTNjg5LjE1MiAxOTIgNTEyIDE5MiAxOTIgMzM0Ljg0OCAxOTIgNTEyczE0Mi44NDggMzIwIDMyMCAzMjB6TTI5MC4zMDQgNjQwSDM4NGMxMC43NTIgNDAuNDQ4IDI1LjYgNzguODQ4IDQ1LjA1NiAxMTMuMTUyLTU3Ljg1Ni0xOS40NTYtMTA3LjAwOC01OS45MDQtMTM4Ljc1Mi0xMTMuMTUyeiBtMjIxLjY5NiAxMjUuOTUyYy0yNS42LTM4LjQtNDcuMTA0LTgwLjg5Ni02MS45NTItMTI1Ljk1MmgxMjEuMzQ0Yy0xMi4yODggNDUuMDU2LTMzLjc5MiA4Ny41NTItNTkuMzkyIDEyNS45NTJ6IG04Mi45NDQtMTIuOGMxOS40NTYtMzYuMzUyIDM0LjMwNC03NC43NTIgNDUuMDU2LTExMy4xNTJoOTMuNjk2Yy0zMS43NDQgNTMuMjQ4LTgwLjg5NiA5My42OTYtMTM4Ljc1MiAxMTMuMTUyeiBtMTY0LjM1Mi0zMDUuMTUyYzQuMDk2IDIxLjUwNCA4LjcwNCA0Mi40OTYgOC43MDQgNjRzLTIuMDQ4IDQyLjQ5Ni04LjcwNCA2NGgtMTA4LjU0NGMyLjA0OC0yMS41MDQgNC4wOTYtNDIuNDk2IDQuMDk2LTY0cy0yLjA0OC00Mi40OTYtNC4wOTYtNjRoMTA4LjU0NHogbS0yNS42LTY0SDY0MGMtMTAuNzUyLTQwLjQ0OC0yNS42LTc4Ljg0OC00NS4wNTYtMTEzLjE1MiA1Ny44NTYgMTkuNDU2IDEwNy4wMDggNTkuOTA0IDEzOC43NTIgMTEzLjE1MnpNNTEyIDI1OC4wNDhjMjcuNjQ4IDM4LjQgNDcuMTA0IDgwLjg5NiA2MS45NTIgMTI1Ljk1Mkg0NTIuMDk2YzEyLjgtNDUuMDU2IDMyLjI1Ni04Ny41NTIgNTkuOTA0LTEyNS45NTJ6TTQzNy4yNDggNDQ4aDE0OS41MDRjMi4wNDggMjEuNTA0IDQuMDk2IDQyLjQ5NiA0LjA5NiA2NHMtMi4wNDggNDIuNDk2LTQuMDk2IDY0SDQzNy4yNDhjLTIuMDQ4LTIxLjUwNC00LjA5Ni00Mi40OTYtNC4wOTYtNjRzMC00Mi40OTYgNC4wOTYtNjR6IG0tOC4xOTItMTc3LjE1MkM0MDkuNiAzMDcuMiAzOTQuNzUyIDM0NS42IDM4NCAzODRIMjkwLjMwNGMzMS43NDQtNTMuMjQ4IDgwLjg5Ni05My42OTYgMTM4Ljc1Mi0xMTMuMTUyek0yNTYgNTEyYzAtMjEuNTA0IDIuMDQ4LTQyLjQ5NiA4LjcwNC02NEgzNzMuNzZjLTIuMDQ4IDIxLjUwNC00LjA5NiA0Mi40OTYtNC4wOTYgNjRzMi4wNDggNDIuNDk2IDQuMDk2IDY0SDI2NC43MDRjLTYuNjU2LTIxLjUwNC04LjcwNC00Mi40OTYtOC43MDQtNjR6Ii8+PHBhdGggZmlsbD0iI0ZGNkEwMCIgZD0iTTUxMiA0NS4wNTZjLTExNS4yIDAtMjI0LjI1NiA0Mi40OTYtMzA5LjI0OCAxMTcuMjQ4LTIzLjU1MiAyMS41MDQtNDUuMDU2IDQ1LjA1Ni02NCA3MC4xNDQtMzEuNzQ0IDAtNTcuMzQ0IDI3LjY0OC01Ny4zNDQgNTkuOTA0czI1LjYgNTkuOTA0IDU5LjkwNCA1OS45MDQgNTkuOTA0LTI1LjYgNTkuOTA0LTU5LjkwNGMwLTguNzA0LTIuMDQ4LTE2Ljg5Ni02LjE0NC0yNS42IDE0Ljg0OC0xOS40NTYgMzQuMzA0LTM4LjQgNTMuMjQ4LTU1LjI5NiA3NC43NTItNjYuMDQ4IDE2OC40NDgtMTAwLjM1MiAyNjYuNzUyLTEwMC4zNTIgMjIxLjY5NiAwIDQwMi45NDQgMTgxLjI0OCA0MDIuOTQ0IDQwMy40NTYgMCAyMjEuNjk2LTE4MS4yNDggNDAyLjk0NC00MDIuOTQ0IDQwMi45NDQtMTE1LjIgMC0yMjYuMzA0LTQ5LjE1Mi0zMDMuMTA0LTEzNi43MDRsLTI1LjYtMzEuNzQ0YzIuMDQ4LTQuMDk2IDIuMDQ4LTEwLjc1MiAyLjA0OC0xNC44NDggMC0zMS43NDQtMjUuNi01OS45MDQtNTkuOTA0LTU5LjkwNHMtNTkuOTA0IDI1LjYtNTkuOTA0IDU5LjkwNGMwIDM0LjMwNCAyNS42IDU5LjkwNCA1OS45MDQgNTkuOTA0aDguNzA0bDI1LjYgMzEuNzQ0Yzg5LjYgMTAwLjM1MiAyMTUuNTUyIDE1Ny42OTYgMzQ5LjY5NiAxNTcuNjk2IDI1OC4wNDggMCA0NjYuOTQ0LTIwOC44OTYgNDY2Ljk0NC00NjYuOTQ0LTAuNTEyLTI2Mi42NTYtMjA5LjQwOC00NzEuNTUyLTQ2Ny40NTYtNDcxLjU1MnoiLz48L3N2Zz4=;strokeColor=#E07A5F;fontColor=#393C56;fillColor=#F2CC8F;" vertex="1" parent="1">
          <mxGeometry x="-1050" y="-1940" width="200" height="200" as="geometry" />
        </mxCell>
        <mxCell id="PWxIAGgqmAsXcWw13BJe-37" value="" style="shape=image;verticalLabelPosition=bottom;verticalAlign=top;imageAspect=0;aspect=fixed;image=data:image/svg+xml,PHN2ZyB4bWxuczp4bGluaz0iaHR0cDovL3d3dy53My5vcmcvMTk5OS94bGluayIgeG1sbnM9Imh0dHA6Ly93d3cudzMub3JnLzIwMDAvc3ZnIiBoZWlnaHQ9IjIwMCIgd2lkdGg9IjIwMCIgdmVyc2lvbj0iMS4xIiB2aWV3Qm94PSIwIDAgMTAyNCAxMDI0IiBjbGFzcz0iaWNvbiI+PHBhdGggZmlsbD0iI0ZGNkEwMCIgZD0iTTc2OCA2MDEuNmgyMTMuNTA0di0zNi4zNTJjMC0xMi44LTEwLjc1Mi0yMy41NTItMjMuNTUyLTIzLjU1Mkg3Njh2NTkuOTA0eiBtLTIzLjU1MiAwdi01OS45MDRIMzk0Ljc1MmMtMTIuOCAwLTIzLjU1MiAxMC43NTItMjMuNTUyIDIzLjU1MnYzNi4zNTJoMzczLjI0OHogbS0xMzguNzUyIDE4MS4yNDh2NTkuOTA0aDM0OS42OTZjMTIuOCAwIDIzLjU1Mi0xMC43NTIgMjMuNTUyLTIzLjU1MnYtMzYuMzUyaC0zNzMuMjQ4ek0zNjkuMTUyIDgxOS4yYzAgMTIuOCAxMC43NTIgMjMuNTUyIDIzLjU1MiAyMy41NTJoMTg3LjkwNHYtNTkuOTA0SDM2Ny4xMDRsMi4wNDggMzYuMzUyeiBtMC0xNjIuMzA0aDYxMi4zNTJWNzE2LjhIMzY5LjE1MnYtNTkuOTA0eiIvPjxwYXRoIGZpbGw9IiNGRjZBMDAiIGQ9Ik0yNDUuMjQ4IDQ0MS4zNDRsMTkuNDU2LTQuMDk2IDYuMTQ0LTE5LjQ1NmMyNS42LTc2LjggOTEuNjQ4LTEzOC43NTIgMTcwLjQ5Ni0xNjYuNCAxMTUuMi00MC40NDggMjM5LjEwNCA0LjA5NiAzMDUuMTUyIDEwMC4zNTIgMTAuNzUyIDE2Ljg5NiAyMS41MDQgMjkuNjk2IDI3LjY0OCA0Mi40OTZsLTc2LjgtMzEuNzQ0Yy0xNi44OTYtNi4xNDQtMzQuMzA0LTIuMDQ4LTQwLjQ0OCAxMi44LTYuMTQ0IDE2Ljg5NiAwIDM0LjMwNCAxNi44OTYgNDIuNDk2bDEzMi4wOTYgNTUuMjk2YzE0Ljg0OCA2LjE0NCAzNC4zMDQgMCA0MC40NDgtMTYuODk2bDY4LjA5Ni0xMjUuOTUyYzguNzA0LTE0Ljg0OCA2LjY1Ni0zNC4zMDQtMTAuNzUyLTQyLjQ5Ni0xNC44NDgtOC43MDQtMzQuMzA0LTIuMDQ4LTQyLjQ5NiAxMi44TDgyMi43ODQgMzY4LjY0Yy0zNi4zNTItNzYuOC05OC4zMDQtMTM2LjcwNC0xNzUuMTA0LTE2OC40NDgtMTY4LjQ0OC02OC4wOTYtMzYyLjQ5NiAxMi44LTQzMy4xNTIgMTgxLjI0OC0xMDYuNDk2IDI1LjYtMTgxLjI0OCAxMjEuODU2LTE3OS4yIDIzMC40IDIuMDQ4IDEyOCAxMDguNTQ0IDIzMC40IDIzNi41NDQgMjI2LjMwNCAxNi44OTYgMCAzMS43NDQtMTQuODQ4IDMxLjc0NC0zMS43NDRzLTE2Ljg5Ni0zMS43NDQtNDIuNDk2LTM0LjMwNGMtODAuODk2IDAtMTQ5LjUwNC01Ny4zNDQtMTY0LjM1Mi0xMzguNzUyLTcuMTY4LTg0Ljk5MiA1OC44OC0xNzQuNTkyIDE0OC40OC0xOTJ6Ii8+PC9zdmc+;strokeColor=#E07A5F;fontColor=#393C56;fillColor=#F2CC8F;" vertex="1" parent="1">
          <mxGeometry x="-413" y="-2120" width="200" height="200" as="geometry" />
        </mxCell>
        <mxCell id="PWxIAGgqmAsXcWw13BJe-38" value="&lt;font style=&quot;font-size: 18px;&quot;&gt;云防火墙&lt;/font&gt;" style="text;strokeColor=none;align=center;fillColor=none;html=1;verticalAlign=middle;whiteSpace=wrap;rounded=0;fontColor=#393C56;" vertex="1" parent="1">
          <mxGeometry x="-378" y="-1930" width="130" height="30" as="geometry" />
        </mxCell>
        <mxCell id="PWxIAGgqmAsXcWw13BJe-39" value="" style="shape=image;verticalLabelPosition=bottom;verticalAlign=top;imageAspect=0;aspect=fixed;image=data:image/svg+xml,PHN2ZyB4bWxuczp4bGluaz0iaHR0cDovL3d3dy53My5vcmcvMTk5OS94bGluayIgeG1sbnM9Imh0dHA6Ly93d3cudzMub3JnLzIwMDAvc3ZnIiBoZWlnaHQ9IjIwMCIgd2lkdGg9IjIwMCIgdmVyc2lvbj0iMS4xIiB2aWV3Qm94PSIwIDAgMTAyNCAxMDI0IiBjbGFzcz0iaWNvbiI+PHBhdGggZmlsbD0iI0ZGNkEwMCIgZD0iTTcwNS4wMjQgMjc5LjA0bDEuMDI0IDQ0LjU0NGMxNC4zMzYgMC41MTIgMjUuNiAyLjU2IDM4LjkxMiA2LjE0NCAxMC4yNCAxNy40MDggMjMuNTUyIDQ5LjE1MiAzMS43NDQgOTIuMTZoLTY5LjYzMnYxMC4yNGg3MS42OGMzLjA3MiAxOS45NjggNS4xMiA0NC41NDQgNS42MzIgNzAuMTQ0aC03Ny4zMTJ2MTAuMjRoNzcuMzEyYzAgMjMuNTUyLTIuMDQ4IDQ2LjU5Mi01LjYzMiA3MC4xNDRoLTcxLjY4djEwLjI0aDY5LjEyYy04LjcwNCA0My4wMDgtMjIuMDE2IDc1LjI2NC0zMi4yNTYgOTIuMTYtMTMuMzEyIDMuNTg0LTI0LjU3NiA1LjYzMi0zOC45MTIgNi4xNDRsLTEuMDI0IDQ0LjU0NGMxMjMuMzkyLTMuNTg0IDIyMS4xODQtMTA0LjQ0OCAyMjEuMTg0LTIyOC44NjQgMC41MTItMTIzLjM5Mi05Ni43NjgtMjI0LjI1Ni0yMjAuMTYtMjI3Ljg0eiBtMTc2LjEyOCAyMjMuMjMySDc5OC43MmMwLTIzLjU1Mi0yLjA0OC00Ni41OTItNS42MzItNzAuMTQ0SDg2NS4yOGM5LjcyOCAyMS41MDQgMTQuODQ4IDQ2LjA4IDE1Ljg3MiA3MC4xNDR6IG0tMTE5LjI5Ni0xNjYuOTEyYzQxLjQ3MiAxNS4zNiA3NS43NzYgNDguNjQgOTYuNzY4IDg3LjA0aC02OC4wOTZjLTcuMTY4LTM4LjkxMi0xOC45NDQtNjkuNjMyLTI4LjY3Mi04Ny4wNHogbTAgMzQ0LjU3NmM5LjcyOC0xNy40MDggMjEuNTA0LTQ4LjEyOCAyOS4xODQtODcuMDRoNjcuNTg0Yy0yMS41MDQgMzcuODg4LTU1LjI5NiA3MS42OC05Ni43NjggODcuMDR6IG0zMS4yMzItOTcuMjhjMy4wNzItMTkuOTY4IDUuNjMyLTQ0LjAzMiA1LjYzMi03MC4xNDRoODIuOTQ0Yy0xLjAyNCAyNC4wNjQtNi42NTYgNDcuNjE2LTE2LjM4NCA3MC4xNDRoLTcyLjE5MnogbS0xNDUuNDA4IDEwMi40YzEzLjMxMiAzLjU4NCAzMy43OTIgNS42MzIgNDguNjQgNi4xNDR2LTk4LjMwNGgtODAuMzg0YzguMTkyIDQzLjAwOCAyMS41MDQgNzQuNzUyIDMxLjc0NCA5Mi4xNnogbS0zNC4zMDQtMTAyLjRINjk2LjMydi03MC4xNDRoLTg4LjU3NmMwLjUxMiAyMy41NTIgMi41NiA0Ny4xMDQgNS42MzIgNzAuMTQ0eiBtLTUuNjMyLTgwLjM4NEg2OTYuMzJWNDMyLjY0aC04Mi45NDRjLTMuNTg0IDIzLjA0LTUuNjMyIDQ2LjA4LTUuNjMyIDY5LjYzMnogbS0xMzkuMjY0IDUuMTJjMC0xMjUuOTUyIDEwMy45MzYtMjI4LjM1MiAyMjkuODg4LTIyOC4zNTJoNi4xNDRWMTM3LjIxNmwtMjkxLjMyOCA0NS41Njh2NjQ5LjIxNmwyOTAuODE2IDQ1LjU2OCAwLjUxMi0xNDEuODI0aC02LjE0NGMtMTI1Ljk1MiAwLTIyOS44ODgtMTAxLjg4OC0yMjkuODg4LTIyOC4zNTJ6IG0xMjUuNDQgNS4xMmgtODAuODk2YzEuMDI0IDI0LjA2NCA2LjY1NiA0Ny42MTYgMTYuMzg0IDcwLjE0NGg3MC4xNDRjLTMuMDcyLTIzLjA0LTUuMTItNDYuNTkyLTUuNjMyLTcwLjE0NHogbTIxLjUwNC05MS4xMzZINjk2LjMyVjMyMy41ODRjLTE0Ljg0OCAwLjUxMi0zNS4zMjggMy4wNzItNDguNjQgNi42NTYtMTAuNzUyIDE3LjQwOC0yMy41NTIgNDguNjQtMzIuMjU2IDkxLjEzNnogbS0xNS44NzIgMTEuMjY0aC03MC42NTZjLTkuNzI4IDIyLjAxNi0xNS4zNiA0NS41NjgtMTUuODcyIDcwLjE0NEg1OTMuOTJjMC41MTItMjYuMTEyIDIuNTYtNTAuMTc2IDUuNjMyLTcwLjE0NHogbS02Mi45NzYgMTYwLjI1NmMyMC40OCAzNy4zNzYgNTMuNzYgNzAuNjU2IDk0LjcyIDg2LjUyOC05LjcyOC0xNy40MDgtMjAuOTkyLTQ3LjYxNi0yOC42NzItODYuNTI4aC02Ni4wNDh6IG05NC4yMDgtMjU3LjAyNGMtNDAuNDQ4IDE1Ljg3Mi03My43MjggNDguMTI4LTk0LjIwOCA4NS41MDRoNjYuMDQ4YzcuMTY4LTM4LjQgMTguNDMyLTY3LjU4NCAyOC4xNi04NS41MDR6IG0tNDM3LjI0OCAzODIuOTc2SDIzMC40di0zNS44NGgtMzcuMzc2bDAuNTEyIDM1Ljg0eiBtLTcyLjE5MiAwaDM0LjgxNnYtMzUuODRoLTM0LjgxNnYzNS44NHogbTE1Ny4xODQtNTYuMzJsMjAuNDggMjAuNDhIMjY2LjI0djM1Ljg0aDMyLjc2OGwtMTguNDMyIDI2LjExMiAyMS41MDQgMTUuODcyIDU0Ljc4NC02Mi40NjQtNTcuMzQ0LTU3LjM0NC0yMC45OTIgMjEuNTA0ek0xOTQuNTYgNTAwLjczNmgtMzYuMzUydjM0LjMwNEgxOTQuNTZ2LTM0LjMwNHogbS0xMDkuMDU2IDM0LjgxNmgzNS4zMjh2LTM0LjMwNGgtMzUuMzI4djM0LjMwNHogbTE3Ny42NjQtODAuMzg0bDQ4LjEyOCA0Ni4wOEgyMjguODY0djM0LjMwNGg4Mi40MzJsLTQ4LjEyOCA0Ni4wOCAyMC45OTIgMjAuOTkyIDgzLjk2OC04My45NjgtODMuOTY4LTg0LjQ4LTIwLjk5MiAyMC45OTJ6TTE5NC41NiAzMTkuNDg4SDEyMi44OHYzNi4zNTJoNzEuNjh2LTM2LjM1MnogbTg3LjA0IDU1LjgwOGwyMC45OTIgMjAuOTkyTDM2MC45NiAzMzcuOTIgMzAyLjU5MiAyNzkuNTUyIDI4MS42IDMwMC41NDRsMjIuNTI4IDE4Ljk0NEgyMzAuOTEydjM2LjM1Mmg3Mi43MDRMMjgxLjYgMzc1LjI5NnoiLz48L3N2Zz4=;strokeColor=#E07A5F;fontColor=#393C56;fillColor=#F2CC8F;" vertex="1" parent="1">
          <mxGeometry x="-110" y="-2120" width="200" height="200" as="geometry" />
        </mxCell>
        <mxCell id="PWxIAGgqmAsXcWw13BJe-42" value="" style="shape=image;verticalLabelPosition=bottom;verticalAlign=top;imageAspect=0;aspect=fixed;image=data:image/svg+xml,PHN2ZyB4bWxuczp4bGluaz0iaHR0cDovL3d3dy53My5vcmcvMTk5OS94bGluayIgeG1sbnM9Imh0dHA6Ly93d3cudzMub3JnLzIwMDAvc3ZnIiBoZWlnaHQ9IjIwMCIgd2lkdGg9IjIwMCIgdmVyc2lvbj0iMS4xIiB2aWV3Qm94PSIwIDAgMTAyNCAxMDI0IiBjbGFzcz0iaWNvbiI+PHBhdGggZmlsbD0iI0ZGNkEwMCIgZD0iTTY2NS42IDUwOS45NTJIMzQ3LjY0OGMtMTIuOCAwLTIxLjUwNCA4LjcwNC0yMS41MDQgMjEuNTA0djIwNC44YzAgMTIuOCA4LjcwNCAyMS41MDQgMjEuNTA0IDIxLjUwNGgzMTUuOTA0YzEyLjggMCAyMS41MDQtOC43MDQgMjEuNTA0LTIxLjUwNHYtMjA0LjhjMi4wNDgtMTIuOC04LjcwNC0yMS41MDQtMTkuNDU2LTIxLjUwNHogbS0xMzIuMDk2IDE1MS41NTJzMCAyLjA0OCAwIDBjMCAxMi44LTguNzA0IDIzLjU1Mi0yMS41MDQgMjMuNTUycy0yMS41MDQtOC43MDQtMjEuNTA0LTIxLjUwNHYtMi4wNDhjLTEyLjgtNi4xNDQtMjEuNTA0LTIxLjUwNC0yMS41MDQtMzYuMzUyIDAtMjMuNTUyIDE5LjQ1Ni00Mi40OTYgNDIuNDk2LTQyLjQ5NnM0Mi40OTYgMTkuNDU2IDQyLjQ5NiA0Mi40OTZjMC41MTIgMTQuODQ4LTcuNjggMjkuNjk2LTIwLjQ4IDM2LjM1MnoiLz48cGF0aCBmaWxsPSIjRkY2QTAwIiBkPSJNOTgxLjUwNCA0OTIuNTQ0Qzk3MC43NTIgMjQzLjIgNzYzLjkwNCA0NC41NDQgNTEyIDQ0LjU0NFM1My4yNDggMjQzLjIgNDIuNDk2IDQ5Mi41NDR2MzEuNzQ0QzQ4LjY0IDc3OC4yNCAyNTYgOTgzLjA0IDUxMiA5ODMuMDRzNDYyLjg0OC0yMDQuOCA0NjkuNTA0LTQ1OC43NTJ2LTMxLjc0NHogbS0xNzEuMDA4LTIxOS42NDhjLTQyLjQ5NiAzNC4zMDQtOTEuNjQ4IDUxLjItMTMwLjA0OCA2MS45NTItMjMuNTUyLTg3LjU1Mi02NC0xNTkuNzQ0LTEwOC41NDQtMTk4LjE0NCA5NS43NDQgMTQuODQ4IDE3OS4yIDY0IDIzOC41OTIgMTM2LjE5MnogbS0zNTguNC0xMzYuMTkyQzQwOS42IDE3NS4xMDQgMzY5LjE1MiAyNDcuMjk2IDM0NS42IDMzMi44Yy0zOC40LTEwLjc1Mi04NS41MDQtMjcuNjQ4LTEyOC02MS45NTJDMjc1LjQ1NiAxOTguNjU2IDM1OC40IDE1MS41NTIgNDUyLjA5NiAxMzYuNzA0eiBtMzczLjI0OCA1OTYuOTkyYy0xNi44OTYtMTQuODQ4LTM4LjQtMjcuNjQ4LTU5LjkwNC00MC40NDgtMjkuNjk2LTE0Ljg0OC00NS4wNTYgMTQuODQ4LTE2Ljg5NiAyNy42NDggMTkuNDU2IDguNzA0IDM4LjQgMjEuNTA0IDU3LjM0NCAzNi4zNTItNjEuOTUyIDc0Ljc1Mi0xNDkuNTA0IDEyMy45MDQtMjQ5Ljg1NiAxMzQuNjU2IDIxLjUwNC0xNC44NDggNDUuMDU2LTQwLjQ0OCA2NC03Mi43MDQgNi42NTYtMTYuODk2LTIxLjUwNC0yNy42NDgtMzYuMzUyLTIuMDQ4LTI1LjYgMzYuMzUyLTUxLjIgNTcuMzQ0LTc0Ljc1MiA1Ny4zNDQtMjEuNTA0IDAtNDkuMTUyLTIxLjUwNC03Mi43MDQtNTUuMjk2LTIxLjUwNC0zMS43NDQtNDIuNDk2LTE0Ljg0OC0zOC40IDAgMTkuNDU2IDI5LjY5NiA0MC40NDggNTMuMjQ4IDYxLjk1MiA3MC42NTYtOTguMzA0LTguNzA0LTE4My4yOTYtNTcuMzQ0LTI0My4yLTEzMC4wNDggMTkuNDU2LTE0Ljg0OCAzOC40LTI3LjY0OCA1Ny4zNDQtMzYuMzUyIDI3LjY0OC0xNC44NDggMTAuNzUyLTQyLjQ5Ni0xNi44OTYtMjcuNjQ4LTE5LjQ1NiAxMC43NTItNDAuNDQ4IDIzLjU1Mi01OS45MDQgMzguNC00Mi40OTYtNTkuOTA0LTY2LjA0OC0xMzIuMDk2LTY4LjA5Ni0yMDguODk2SDI2MS4xMmM4LjcwNCAwIDE2Ljg5Ni02LjY1NiAxNi44OTYtMTYuODk2UzI3MS44NzIgNDkxLjUyIDI2MS4xMiA0OTEuNTJIMTMwLjA0OGM0LjA5Ni03Mi43MDQgMjcuNjQ4LTE0MC44IDY4LjA5Ni0xOTguMTQ0IDM4LjQgMzQuMzA0IDkxLjY0OCA1NS4yOTYgMTM4Ljc1MiA2OC4wOTYtNC4wOTYgMjEuNTA0LTguNzA0IDQyLjQ5Ni0xMC43NTIgNjYuMDQ4IDAgMTkuNDU2IDMyLjI1NiAxOS40NTYgMzIuMjU2IDAgMTYuODk2LTE0OS41MDQgOTYuMjU2LTI4My42NDggMTUzLjYtMjgzLjY0OHMxMzYuNzA0IDEzNi43MDQgMTU1LjY0OCAyODguMjU2YzIuMDQ4IDE5LjQ1NiAzNC4zMDQgMTYuODk2IDMxLjc0NCAwLTIuMDQ4LTIxLjUwNC02LjY1Ni00Mi40OTYtMTAuNzUyLTY0IDQ5LjE1Mi0xMi44IDEwMi40LTM0LjMwNCAxNDAuOC02OC4wOTYgMzguNCA1NS4yOTYgNjEuOTUyIDEyMy45MDQgNjYuMDQ4IDE5NC4wNDhoLTEzMi4wOTZjLTguNzA0IDAtMTYuODk2IDYuMTQ0LTE2Ljg5NiAxNi44OTYgMCAxMC43NTIgNi4xNDQgMTYuODk2IDE2Ljg5NiAxNi44OTZIODk2Yy0yLjA0OCA3NS43NzYtMjcuNjQ4IDE0Ni40MzItNzAuNjU2IDIwNS44MjR6Ii8+PHBhdGggZmlsbD0iI0ZGNkEwMCIgZD0iTTUxMiAzMTcuOTUyYy01OS45MDQgMC0xMDYuNDk2IDQ3LjEwNC0xMDYuNDk2IDEwNi40OTZ2MzEuNzQ0aDQyLjQ5NnYtMzEuNzQ0YzAtMzQuMzA0IDI3LjY0OC02NCA2NC02NHM2NCAyNy42NDggNjQgNjR2MTQ5LjUwNGg0Mi40OTZWNDI0LjQ0OGMwLTU5LjkwNC00Ni41OTItMTA2LjQ5Ni0xMDYuNDk2LTEwNi40OTZ6Ii8+PC9zdmc+;strokeColor=#E07A5F;fontColor=#393C56;fillColor=#F2CC8F;" vertex="1" parent="1">
          <mxGeometry x="190" y="-2120" width="200" height="200" as="geometry" />
        </mxCell>
        <mxCell id="PWxIAGgqmAsXcWw13BJe-43" value="" style="shape=image;verticalLabelPosition=bottom;verticalAlign=top;imageAspect=0;aspect=fixed;image=data:image/svg+xml,PHN2ZyB4bWxuczp4bGluaz0iaHR0cDovL3d3dy53My5vcmcvMTk5OS94bGluayIgeG1sbnM9Imh0dHA6Ly93d3cudzMub3JnLzIwMDAvc3ZnIiBoZWlnaHQ9IjIwMCIgd2lkdGg9IjIwMCIgdmVyc2lvbj0iMS4xIiB2aWV3Qm94PSIwIDAgMTAyNCAxMDI0IiBjbGFzcz0iaWNvbiI+PHBhdGggZmlsbD0iI0ZGNkEwMCIgZD0iTTUxMiA1MTJtLTQ2OS4zMzMzMzMgMGE0NjkuMzMzMzMzIDQ2OS4zMzMzMzMgMCAxIDAgOTM4LjY2NjY2NiAwIDQ2OS4zMzMzMzMgNDY5LjMzMzMzMyAwIDEgMC05MzguNjY2NjY2IDBaIi8+PHBhdGggZmlsbD0iI0ZGNkEwMCIgZD0iTTUxMiAwYzI4Mi43NzMzMzMgMCA1MTIgMjI5LjIyNjY2NyA1MTIgNTEyUzc5NC43NzMzMzMgMTAyNCA1MTIgMTAyNCAwIDc5NC43NzMzMzMgMCA1MTIgMjI5LjIyNjY2NyAwIDUxMiAweiBtMCAxMC42NjY2NjdDMjM1LjExNDY2NyAxMC42NjY2NjcgMTAuNjY2NjY3IDIzNS4xMTQ2NjcgMTAuNjY2NjY3IDUxMlMyMzUuMTE0NjY3IDEwMTMuMzMzMzMzIDUxMiAxMDEzLjMzMzMzMyAxMDEzLjMzMzMzMyA3ODguODg1MzMzIDEwMTMuMzMzMzMzIDUxMiA3ODguODg1MzMzIDEwLjY2NjY2NyA1MTIgMTAuNjY2NjY3eiIvPjxwYXRoIGZpbGw9IiNGRkZGRkYiIGQ9Ik01MjIuNjY2NjY3IDI1Nm0tODUuMzMzMzM0IDBhODUuMzMzMzMzIDg1LjMzMzMzMyAwIDEgMCAxNzAuNjY2NjY3IDAgODUuMzMzMzMzIDg1LjMzMzMzMyAwIDEgMC0xNzAuNjY2NjY3IDBaIi8+PHBhdGggZmlsbD0iI0ZGRkZGRiIgZD0iTTI0NS4zMzMzMzMgNjgyLjY2NjY2N20tODUuMzMzMzMzIDBhODUuMzMzMzMzIDg1LjMzMzMzMyAwIDEgMCAxNzAuNjY2NjY3IDAgODUuMzMzMzMzIDg1LjMzMzMzMyAwIDEgMC0xNzAuNjY2NjY3IDBaIi8+PHBhdGggZmlsbD0iI0ZGRkZGRiIgZD0iTTgwMCA2ODIuNjY2NjY3bS04NS4zMzMzMzMgMGE4NS4zMzMzMzMgODUuMzMzMzMzIDAgMSAwIDE3MC42NjY2NjYgMCA4NS4zMzMzMzMgODUuMzMzMzMzIDAgMSAwLTE3MC42NjY2NjYgMFoiLz48cGF0aCBmaWxsPSIjRkZGRkZGIiBkPSJNNTg2LjY2NjY2NyA1ODEuMzMzMzMzdjEwLjY2NjY2N2gtMTI4di0xMC42NjY2Njd6Ii8+PHBhdGggZmlsbD0iI0ZGRkZGRiIgZD0iTTYwOCA1NTQuNjY2NjY3YTMyIDMyIDAgMSAxIDAgNjQgMzIgMzIgMCAwIDEgMC02NHogbTAgMjEuMzMzMzMzYTEwLjY2NjY2NyAxMC42NjY2NjcgMCAxIDAgMCAyMS4zMzMzMzMgMTAuNjY2NjY3IDEwLjY2NjY2NyAwIDAgMCAwLTIxLjMzMzMzM3pNNTIyLjY2NjY2NyA0NjkuMzMzMzMzYTMyIDMyIDAgMSAxIDAgNjQgMzIgMzIgMCAwIDEgMC02NHogbTAgMjEuMzMzMzM0YTEwLjY2NjY2NyAxMC42NjY2NjcgMCAxIDAgMCAyMS4zMzMzMzMgMTAuNjY2NjY3IDEwLjY2NjY2NyAwIDAgMCAwLTIxLjMzMzMzM3oiLz48cGF0aCBmaWxsPSIjRkZGRkZGIiBkPSJNNTE3LjMzMzMzMyA1MjIuNjY2NjY3aDEwLjY2NjY2N3Y2NGgtMTAuNjY2NjY3ek00MzcuMzMzMzMzIDU1NC42NjY2NjdhMzIgMzIgMCAxIDEgMCA2NCAzMiAzMiAwIDAgMSAwLTY0eiBtMCAyMS4zMzMzMzNhMTAuNjY2NjY3IDEwLjY2NjY2NyAwIDEgMCAwIDIxLjMzMzMzMyAxMC42NjY2NjcgMTAuNjY2NjY3IDAgMCAwIDAtMjEuMzMzMzMzeiIvPjxwYXRoIGZpbGw9IiNGRkZGRkYiIGQ9Ik01MjIuNjY2NjY3IDI1Nkw4MTAuNjY2NjY3IDcwNEgyMzQuNjY2NjY3bDI4OC00NDh6IG0wIDM5LjQ0NTMzM0wyNzMuNzI4IDY4Mi42NjY2NjdoNDk3Ljg1Nkw1MjIuNjY2NjY3IDI5NS40NDUzMzN6Ii8+PC9zdmc+;strokeColor=#E07A5F;fontColor=#393C56;fillColor=#F2CC8F;" vertex="1" parent="1">
          <mxGeometry x="-560" y="-1853" width="200" height="200" as="geometry" />
        </mxCell>
      </root>
    </mxGraphModel>
  </diagram>
</mxfile>
